<svg width="50" height="50" viewBox="0 0 50 50" fill="none" xmlns="http://www.w3.org/2000/svg">
<path d="M11.7187 3.125C9.56042 3.125 7.8125 4.875 7.8125 7.03125V42.9687C7.8125 45.125 9.5625 46.875 11.7187 46.875H38.2812C40.4375 46.875 42.1875 45.125 42.1875 42.9687V26.5625C42.1875 24.4905 41.3644 22.5034 39.8993 21.0382C38.4341 19.5731 36.447 18.75 34.375 18.75H30.4687C29.4327 18.75 28.4392 18.3385 27.7066 17.6059C26.974 16.8733 26.5625 15.8798 26.5625 14.8437V10.9375C26.5625 8.8655 25.7394 6.87836 24.2743 5.41323C22.8091 3.9481 20.822 3.125 18.75 3.125H11.7187Z" fill="white"/>
<path d="M27.0234 3.78516C28.7453 5.7705 29.6917 8.31129 29.688 10.9393V14.8456C29.688 15.2768 30.038 15.6268 30.4693 15.6268H34.3755C37.0035 15.6232 39.5443 16.5695 41.5297 18.2914C40.6131 14.8054 38.787 11.6254 36.2383 9.07659C33.6895 6.52781 30.5095 4.70175 27.0234 3.78516Z" fill="white"/>
<path d="M8 33H42V43C42 45.2091 40.2091 47 38 47H12C9.79086 47 8 45.2091 8 43V33Z" fill="#E61D2F"/>
<path d="M13.7585 45V36.2727H17.2017C17.8636 36.2727 18.4276 36.3991 18.8935 36.652C19.3594 36.902 19.7145 37.25 19.9588 37.696C20.206 38.1392 20.3295 38.6506 20.3295 39.2301C20.3295 39.8097 20.2045 40.321 19.9545 40.7642C19.7045 41.2074 19.3423 41.5526 18.8679 41.7997C18.3963 42.0469 17.8253 42.1705 17.1548 42.1705H14.9602V40.6918H16.8565C17.2116 40.6918 17.5043 40.6307 17.7344 40.5085C17.9673 40.3835 18.1406 40.2116 18.2543 39.9929C18.3707 39.7713 18.429 39.517 18.429 39.2301C18.429 38.9403 18.3707 38.6875 18.2543 38.4716C18.1406 38.2528 17.9673 38.0838 17.7344 37.9645C17.5014 37.8423 17.206 37.7812 16.848 37.7812H15.6037V45H13.7585ZM24.6218 45H21.5281V36.2727H24.6474C25.5252 36.2727 26.2809 36.4474 26.9144 36.7969C27.5479 37.1435 28.0352 37.642 28.3761 38.2926C28.7198 38.9432 28.8917 39.7216 28.8917 40.6278C28.8917 41.5369 28.7198 42.3182 28.3761 42.9716C28.0352 43.625 27.5451 44.1264 26.9059 44.4759C26.2695 44.8253 25.5082 45 24.6218 45ZM23.3732 43.419H24.5451C25.0906 43.419 25.5494 43.3224 25.9215 43.1293C26.2965 42.9332 26.5778 42.6307 26.7653 42.2216C26.9556 41.8097 27.0508 41.2784 27.0508 40.6278C27.0508 39.983 26.9556 39.456 26.7653 39.0469C26.5778 38.6378 26.2979 38.3366 25.9258 38.1435C25.5536 37.9503 25.0948 37.8537 24.5494 37.8537H23.3732V43.419ZM30.2585 45V36.2727H36.0369V37.794H32.1037V39.8736H35.6534V41.3949H32.1037V45H30.2585Z" fill="white"/>
</svg>
