<svg width="50" height="50" viewBox="0 0 50 50" fill="none" xmlns="http://www.w3.org/2000/svg">
<path d="M11.7187 3.125C9.56042 3.125 7.8125 4.875 7.8125 7.03125V42.9687C7.8125 45.125 9.5625 46.875 11.7187 46.875H38.2812C40.4375 46.875 42.1875 45.125 42.1875 42.9687V26.5625C42.1875 24.4905 41.3644 22.5034 39.8993 21.0382C38.4341 19.5731 36.447 18.75 34.375 18.75H30.4687C29.4327 18.75 28.4392 18.3385 27.7066 17.6059C26.974 16.8733 26.5625 15.8798 26.5625 14.8437V10.9375C26.5625 8.8655 25.7394 6.87836 24.2743 5.41323C22.8091 3.9481 20.822 3.125 18.75 3.125H11.7187Z" fill="white"/>
<path d="M27.0234 3.78516C28.7453 5.7705 29.6917 8.31129 29.688 10.9393V14.8456C29.688 15.2768 30.038 15.6268 30.4693 15.6268H34.3755C37.0035 15.6232 39.5443 16.5695 41.5297 18.2914C40.6131 14.8054 38.787 11.6254 36.2383 9.07659C33.6895 6.52781 30.5095 4.70175 27.0234 3.78516Z" fill="white"/>
<path d="M8 33H42V43C42 45.2091 40.2091 47 38 47H12C9.79086 47 8 45.2091 8 43V33Z" fill="#14B506"/>
<path d="M14.544 36.7273H16.0639V41.7983C16.0639 42.267 15.9586 42.6742 15.7479 43.0199C15.5395 43.3655 15.2495 43.6319 14.8778 43.8189C14.5062 44.0059 14.0741 44.0994 13.5817 44.0994C13.1437 44.0994 12.746 44.0225 12.3885 43.8686C12.0334 43.7124 11.7517 43.4756 11.5433 43.1584C11.335 42.8388 11.232 42.4375 11.2344 41.9545H12.7649C12.7696 42.1463 12.8087 42.3108 12.8821 42.4482C12.9579 42.5831 13.0608 42.6873 13.1911 42.7607C13.3236 42.8317 13.4799 42.8672 13.6598 42.8672C13.8492 42.8672 14.009 42.8269 14.1392 42.7464C14.2718 42.6636 14.3724 42.5429 14.4411 42.3842C14.5097 42.2256 14.544 42.0303 14.544 41.7983V36.7273ZM21.2805 38.8189C21.2521 38.5324 21.1302 38.3099 20.9148 38.1513C20.6993 37.9927 20.407 37.9134 20.0376 37.9134C19.7867 37.9134 19.5748 37.9489 19.402 38.0199C19.2292 38.0885 19.0966 38.1844 19.0043 38.3075C18.9143 38.4306 18.8693 38.5703 18.8693 38.7266C18.8646 38.8568 18.8918 38.9704 18.951 39.0675C19.0125 39.1645 19.0966 39.2486 19.2031 39.3196C19.3097 39.3883 19.4328 39.4486 19.5724 39.5007C19.7121 39.5504 19.8613 39.593 20.0199 39.6286L20.6733 39.7848C20.9905 39.8558 21.2817 39.9505 21.5469 40.0689C21.812 40.1873 22.0417 40.3329 22.2358 40.5057C22.4299 40.6785 22.5803 40.8821 22.6868 41.1165C22.7957 41.3509 22.8513 41.6196 22.8537 41.9226C22.8513 42.3677 22.7377 42.7536 22.5128 43.0803C22.2902 43.4046 21.9683 43.6567 21.5469 43.8366C21.1278 44.0142 20.6224 44.103 20.0305 44.103C19.4434 44.103 18.9321 44.013 18.4964 43.8331C18.0632 43.6532 17.7247 43.3868 17.4808 43.0341C17.2393 42.679 17.1127 42.2398 17.1009 41.7166H18.5888C18.6054 41.9605 18.6752 42.1641 18.7983 42.3274C18.9238 42.4884 19.0907 42.6103 19.299 42.6932C19.5097 42.7737 19.7476 42.8139 20.0128 42.8139C20.2732 42.8139 20.4993 42.776 20.6911 42.7003C20.8852 42.6245 21.0355 42.5192 21.142 42.3842C21.2486 42.2493 21.3018 42.0942 21.3018 41.919C21.3018 41.7557 21.2533 41.6184 21.1562 41.5071C21.0616 41.3958 20.9219 41.3011 20.7372 41.223C20.5549 41.1449 20.3312 41.0739 20.0661 41.0099L19.2741 40.8111C18.661 40.6619 18.1768 40.4287 17.8217 40.1115C17.4666 39.7943 17.2902 39.367 17.2926 38.8295C17.2902 38.3892 17.4074 38.0045 17.6442 37.6754C17.8833 37.3464 18.2112 37.0895 18.6278 36.9048C19.0445 36.7202 19.518 36.6278 20.0483 36.6278C20.5881 36.6278 21.0592 36.7202 21.4616 36.9048C21.8665 37.0895 22.1813 37.3464 22.4062 37.6754C22.6312 38.0045 22.7472 38.3857 22.7543 38.8189H21.2805ZM30.5712 40.3636C30.5712 41.1567 30.4209 41.8314 30.1202 42.3878C29.8219 42.9441 29.4147 43.3691 28.8986 43.6626C28.3849 43.9538 27.8072 44.0994 27.1657 44.0994C26.5194 44.0994 25.9393 43.9527 25.4256 43.6591C24.9119 43.3655 24.5059 42.9406 24.2076 42.3842C23.9093 41.8279 23.7601 41.1544 23.7601 40.3636C23.7601 39.5705 23.9093 38.8958 24.2076 38.3395C24.5059 37.7831 24.9119 37.3594 25.4256 37.0682C25.9393 36.7746 26.5194 36.6278 27.1657 36.6278C27.8072 36.6278 28.3849 36.7746 28.8986 37.0682C29.4147 37.3594 29.8219 37.7831 30.1202 38.3395C30.4209 38.8958 30.5712 39.5705 30.5712 40.3636ZM29.0123 40.3636C29.0123 39.8499 28.9353 39.4167 28.7814 39.0639C28.6299 38.7112 28.4157 38.4437 28.1387 38.2614C27.8617 38.0791 27.5373 37.9879 27.1657 37.9879C26.794 37.9879 26.4696 38.0791 26.1926 38.2614C25.9157 38.4437 25.7002 38.7112 25.5463 39.0639C25.3948 39.4167 25.3191 39.8499 25.3191 40.3636C25.3191 40.8774 25.3948 41.3106 25.5463 41.6634C25.7002 42.0161 25.9157 42.2836 26.1926 42.4659C26.4696 42.6482 26.794 42.7393 27.1657 42.7393C27.5373 42.7393 27.8617 42.6482 28.1387 42.4659C28.4157 42.2836 28.6299 42.0161 28.7814 41.6634C28.9353 41.3106 29.0123 40.8774 29.0123 40.3636ZM37.7933 36.7273V44H36.4652L33.3011 39.4226H33.2479V44H31.7102V36.7273H33.0597L36.1989 41.3011H36.2628V36.7273H37.7933Z" fill="white"/>
</svg>
