<svg width="50" height="50" viewBox="0 0 50 50" fill="none" xmlns="http://www.w3.org/2000/svg">
<path d="M11.7187 3.125C9.56042 3.125 7.8125 4.875 7.8125 7.03125V42.9687C7.8125 45.125 9.5625 46.875 11.7187 46.875H38.2812C40.4375 46.875 42.1875 45.125 42.1875 42.9687V26.5625C42.1875 24.4905 41.3644 22.5034 39.8993 21.0382C38.4341 19.5731 36.447 18.75 34.375 18.75H30.4687C29.4327 18.75 28.4392 18.3385 27.7066 17.6059C26.974 16.8733 26.5625 15.8798 26.5625 14.8437V10.9375C26.5625 8.8655 25.7394 6.87836 24.2743 5.41323C22.8091 3.9481 20.822 3.125 18.75 3.125H11.7187Z" fill="white"/>
<path d="M27.0234 3.78516C28.7453 5.7705 29.6917 8.31129 29.688 10.9393V14.8456C29.688 15.2768 30.038 15.6268 30.4693 15.6268H34.3755C37.0035 15.6232 39.5443 16.5695 41.5297 18.2914C40.6131 14.8054 38.787 11.6254 36.2383 9.07659C33.6895 6.52781 30.5095 4.70175 27.0234 3.78516Z" fill="white"/>
<path d="M8 33H42V43C42 45.2091 40.2091 47 38 47H12C9.79086 47 8 45.2091 8 43V33Z" fill="#5949FF"/>
<path d="M13.4261 37.794V36.2727H20.5938V37.794H17.9219V45H16.098V37.794H13.4261ZM23.5043 36.2727L25.2642 39.2472H25.3324L27.1009 36.2727H29.1847L26.5213 40.6364L29.2443 45H27.1222L25.3324 42.0213H25.2642L23.4744 45H21.3608L24.0923 40.6364L21.4119 36.2727H23.5043ZM30.0199 37.794V36.2727H37.1875V37.794H34.5156V45H32.6918V37.794H30.0199Z" fill="white"/>
</svg>
