<svg width="50" height="50" viewBox="0 0 50 50" fill="none" xmlns="http://www.w3.org/2000/svg">
<path d="M11.7187 3.125C9.56042 3.125 7.8125 4.875 7.8125 7.03125V42.9687C7.8125 45.125 9.5625 46.875 11.7187 46.875H38.2812C40.4375 46.875 42.1875 45.125 42.1875 42.9687V26.5625C42.1875 24.4905 41.3644 22.5034 39.8993 21.0382C38.4341 19.5731 36.447 18.75 34.375 18.75H30.4687C29.4327 18.75 28.4392 18.3385 27.7066 17.6059C26.974 16.8733 26.5625 15.8798 26.5625 14.8437V10.9375C26.5625 8.8655 25.7394 6.87836 24.2743 5.41323C22.8091 3.9481 20.822 3.125 18.75 3.125H11.7187Z" fill="white"/>
<path d="M27.0234 3.78516C28.7453 5.7705 29.6917 8.31129 29.688 10.9393V14.8456C29.688 15.2768 30.038 15.6268 30.4693 15.6268H34.3755C37.0035 15.6232 39.5443 16.5695 41.5297 18.2914C40.6131 14.8054 38.787 11.6254 36.2383 9.07659C33.6895 6.52781 30.5095 4.70175 27.0234 3.78516Z" fill="white"/>
<path d="M8 33H42V43C42 45.2091 40.2091 47 38 47H12C9.79086 47 8 45.2091 8 43V33Z" fill="#F24E1E"/>
<path d="M20.4588 39.3281H18.5923C18.5582 39.0866 18.4886 38.8722 18.3835 38.6847C18.2784 38.4943 18.1435 38.3324 17.9787 38.1989C17.8139 38.0653 17.6236 37.9631 17.4077 37.892C17.1946 37.821 16.9631 37.7855 16.7131 37.7855C16.2614 37.7855 15.8679 37.8977 15.5327 38.1222C15.1974 38.3437 14.9375 38.6676 14.7528 39.0938C14.5682 39.517 14.4759 40.0312 14.4759 40.6364C14.4759 41.2585 14.5682 41.7812 14.7528 42.2045C14.9403 42.6278 15.2017 42.9474 15.5369 43.1634C15.8722 43.3793 16.2599 43.4872 16.7003 43.4872C16.9474 43.4872 17.1761 43.4545 17.3864 43.3892C17.5994 43.3239 17.7884 43.2287 17.9531 43.1037C18.1179 42.9759 18.2543 42.821 18.3622 42.6392C18.473 42.4574 18.5497 42.25 18.5923 42.017L20.4588 42.0256C20.4105 42.4261 20.2898 42.8125 20.0966 43.1847C19.9063 43.554 19.6491 43.8849 19.3253 44.1776C19.0043 44.4673 18.6207 44.6974 18.1747 44.8679C17.7315 45.0355 17.2301 45.1193 16.6705 45.1193C15.892 45.1193 15.196 44.9432 14.5824 44.5909C13.9716 44.2386 13.4886 43.7287 13.1335 43.0611C12.7812 42.3935 12.6051 41.5852 12.6051 40.6364C12.6051 39.6847 12.7841 38.875 13.142 38.2074C13.5 37.5398 13.9858 37.0312 14.5994 36.6818C15.2131 36.3295 15.9034 36.1534 16.6705 36.1534C17.1761 36.1534 17.6449 36.2244 18.0767 36.3665C18.5114 36.5085 18.8963 36.7159 19.2315 36.9886C19.5668 37.2585 19.8395 37.5895 20.0497 37.9815C20.2628 38.3736 20.3991 38.8224 20.4588 39.3281ZM26.5163 38.7827C26.4822 38.4389 26.3359 38.1719 26.0774 37.9815C25.8189 37.7912 25.468 37.696 25.0249 37.696C24.7237 37.696 24.4695 37.7386 24.2621 37.8239C24.0547 37.9062 23.8956 38.0213 23.7848 38.169C23.6768 38.3168 23.6229 38.4844 23.6229 38.6719C23.6172 38.8281 23.6499 38.9645 23.7209 39.081C23.7947 39.1974 23.8956 39.2983 24.0234 39.3835C24.1513 39.4659 24.299 39.5384 24.4666 39.6009C24.6342 39.6605 24.8132 39.7116 25.0036 39.7543L25.7876 39.9418C26.1683 40.027 26.5178 40.1406 26.8359 40.2827C27.1541 40.4247 27.4297 40.5994 27.6626 40.8068C27.8956 41.0142 28.076 41.2585 28.2038 41.5398C28.3345 41.821 28.4013 42.1435 28.4041 42.5071C28.4013 43.0412 28.2649 43.5043 27.995 43.8963C27.728 44.2855 27.3416 44.5881 26.8359 44.804C26.3331 45.017 25.7266 45.1236 25.0163 45.1236C24.3118 45.1236 23.6982 45.0156 23.1754 44.7997C22.6555 44.5838 22.2493 44.2642 21.9567 43.8409C21.6669 43.4148 21.5149 42.8878 21.5007 42.2599H23.2862C23.3061 42.5526 23.3899 42.7969 23.5376 42.9929C23.6882 43.1861 23.8885 43.3324 24.1385 43.4318C24.3913 43.5284 24.6768 43.5767 24.995 43.5767C25.3075 43.5767 25.5788 43.5312 25.8089 43.4403C26.0419 43.3494 26.2223 43.223 26.3501 43.0611C26.478 42.8991 26.5419 42.7131 26.5419 42.5028C26.5419 42.3068 26.4837 42.142 26.3672 42.0085C26.2536 41.875 26.0859 41.7614 25.8643 41.6676C25.6456 41.5739 25.3771 41.4886 25.0589 41.4119L24.1087 41.1733C23.3729 40.9943 22.7919 40.7145 22.3658 40.3338C21.9396 39.9531 21.728 39.4403 21.7308 38.7955C21.728 38.267 21.8686 37.8054 22.1527 37.4105C22.4396 37.0156 22.8331 36.7074 23.3331 36.4858C23.8331 36.2642 24.4013 36.1534 25.0376 36.1534C25.6854 36.1534 26.2507 36.2642 26.7337 36.4858C27.2195 36.7074 27.5973 37.0156 27.8672 37.4105C28.1371 37.8054 28.2763 38.2628 28.2848 38.7827H26.5163ZM31.2219 36.2727L33.3313 42.9034H33.4123L35.5259 36.2727H37.5714L34.5629 45H32.185L29.1722 36.2727H31.2219Z" fill="white"/>
</svg>
